# xmcd
#
# Track frame offsets:
#	150
#	13183
#	28823
#	40983
#	55833
#	71525
#	86812
#	102120
#	113385
#
# Disc length: 1661 seconds
#
# Revision: 0
# Processed by: cddbd v1.5.2PL0 Copyright (c) Steve Scherf et al.
# Submitted via: EasyCDDAExtractor 15.2.5.1
#
DISCID=6e067b09
DTITLE=Lone Star Swing
DYEAR=2010
DGENRE=Western Swing
TTITLE0=Lady Be Good
TTITLE1=Please Don't Talk About Me
TTITLE2=One Little Kiss
TTITLE3=Air Mail Special
TTITLE4=Nobody
TTITLE5=Russian Lullaby
TTITLE6=Sugar Moon
TTITLE7=Eastern Sea-Bored
TTITLE8=That's What I Like About The South
EXTD=
EXTT0=
EXTT1=
EXTT2=
EXTT3=
EXTT4=
EXTT5=
EXTT6=
EXTT7=
EXTT8=
PLAYORDER=
